<svg width="16" height="22" viewBox="0 0 16 22" fill="none" xmlns="http://www.w3.org/2000/svg">
<path d="M8.84124 5.56961C10.4415 5.5721 11.9892 6.13948 13.2107 7.17137C13.4726 7.40825 13.8742 7.4 14.1261 7.15257L15.3842 5.89297C15.5117 5.76662 15.5805 5.59288 15.5741 5.41369C15.5676 5.23449 15.4865 5.06612 15.3503 4.94921C14.3622 4.11016 13.2196 3.47157 11.9865 3.06921L12.3632 1.21553C12.4029 1.0226 12.3534 0.822078 12.2285 0.669638C12.1035 0.517198 11.9164 0.429061 11.7191 0.429691H9.29702C8.98786 0.429381 8.72003 0.643577 8.65289 0.944811L8.31388 2.60297C5.08949 2.76089 2.35478 4.35513 2.35478 7.62257C2.35478 10.4463 4.61487 11.6608 7.00303 12.5106C9.26312 13.349 10.461 13.6611 10.461 14.8418C10.461 16.0224 9.26689 16.7669 7.50778 16.7669C5.80065 16.7941 4.15132 16.1498 2.91603 14.9734C2.66099 14.723 2.25197 14.723 1.99693 14.9734L0.648409 16.2894C0.521119 16.412 0.449219 16.5809 0.449219 16.7575C0.449219 16.934 0.521119 17.103 0.648409 17.2256C1.74718 18.2529 3.08827 18.9862 4.54706 19.3575L4.17038 21.0758C4.13012 21.2702 4.17832 21.4723 4.30198 21.6277C4.42564 21.7831 4.612 21.8757 4.81074 21.8805H7.24034C7.55204 21.8822 7.82233 21.6657 7.88823 21.3616L8.23854 19.7335C12.1033 19.4966 14.4651 17.4211 14.4651 14.383C14.4651 11.5856 12.1108 10.405 9.25182 9.44241C7.61702 8.82953 6.20446 8.42721 6.20446 7.21649C6.20446 6.00577 7.52285 5.56961 8.84124 5.56961Z" fill="#00D24A"/>
</svg>
